<svg width="179" height="56" viewBox="0 0 179 56" fill="none" xmlns="http://www.w3.org/2000/svg">
<path d="M8.61971 0H47.3752C52.1378 0 56 3.86225 56 8.62483V47.3803C56 52.1378 52.1378 56 47.3752 56H8.61971C3.86225 56 0 52.1378 0 47.3803V8.62483C0 3.85713 3.86225 0 8.61971 0Z" fill="#01001A"/>
<path d="M28 22.4001C19.1839 22.4001 14 28.6554 14 35.8136C14 42.9719 19.1592 49.279 27.9753 49.279C36.7915 49.279 42 42.9719 42 35.8136C42 28.6554 36.871 22.4001 28 22.4001ZM27.9753 40.8469C25.1408 40.8469 23.5398 38.6769 23.5398 35.8136C23.5398 32.9503 25.1408 30.831 27.9753 30.831C30.8099 30.831 32.4602 33.0067 32.4602 35.8136C32.4602 38.6205 30.8592 40.8469 27.9753 40.8469Z" fill="#FBFBFB"/>
<path d="M42.0911 16.2185C38.4416 19.9654 33.4606 21.3893 28 21.2801C22.5339 21.1767 17.609 19.5689 14.0911 15.684L20.9183 8.68428C22.7513 10.7014 25.3087 11.983 28.157 12.0405C31.0108 12.0922 33.6121 10.9141 35.511 8.96013L42.0911 16.2242V16.2185Z" fill="#FBFBFB"/>
<path d="M83.5482 34.65L79.4506 25.3937H76.1959V34.65H67.2002V5.25H83.0605C90.01 5.25 93.7525 9.83359 93.7525 15.3402C93.7525 20.4115 90.7681 23.0966 88.4092 24.2451L93.8002 34.6448H83.5535L83.5482 34.65ZM84.619 15.3035C84.619 13.7197 83.1931 13.0117 81.677 13.0117H76.1959V17.6372H81.677C83.1931 17.6372 84.619 16.9292 84.619 15.3035Z" fill="#01001A"/>
<path d="M111.035 34.1063V31.6623C109.797 33.0673 107.447 34.65 103.686 34.65C98.7284 34.65 96.6001 31.6192 96.6001 27.8616V12.25H104.565V24.3732C104.565 26.5912 105.719 27.4471 107.663 27.4471C109.433 27.4471 110.366 26.4943 111.029 25.7298V12.25H119V34.1009H111.029L111.035 34.1063Z" fill="#01001A"/>
<path d="M121.8 34.65V5.25H134.993C144.292 5.25 151.2 10.5363 151.2 19.9238C151.2 29.3112 144.292 34.6448 135.04 34.6448H121.8V34.65ZM142.122 19.929C142.122 15.9643 139.819 13.0117 135.035 13.0117H130.741V26.8936H134.993C139.466 26.8936 142.122 23.6316 142.122 19.929Z" fill="#01001A"/>
<path d="M154 23.4263C154 17.4597 158.381 12.25 165.877 12.25C173.372 12.25 177.8 17.4649 177.8 23.4263C177.8 29.3878 173.419 34.65 165.877 34.65C158.334 34.65 154 29.393 154 23.4263ZM169.695 23.4263C169.695 21.087 168.338 19.2733 165.882 19.2733C163.425 19.2733 162.111 21.087 162.111 23.4263C162.111 25.7657 163.467 27.6214 165.882 27.6214C168.297 27.6214 169.695 25.813 169.695 23.4263Z" fill="#01001A"/>
<path d="M76.2283 50.75L74.1976 42.9927L72.1516 50.75H70.1874L67.2002 40.25H69.2411L71.2872 48.3246L73.4611 40.25H74.924L77.0928 48.3246L79.1388 40.25H81.2002L78.1976 50.75H76.2283Z" fill="#01001A"/>
<path d="M92.3999 50.75V40.25H99.3999V41.8721H94.1885V44.5789H99.2953V46.201H94.1885V49.1279H99.3999V50.75H92.3999Z" fill="#01001A"/>
<path d="M119.016 50.75L118.247 48.7186H113.453L112.684 50.75H110.6L114.706 40.25H116.994L121.1 50.75H119.016ZM115.853 42.0921L113.973 47.0965H117.733L115.853 42.0921Z" fill="#01001A"/>
<path d="M132.3 50.75V40.25H134.094V49.1279H138.6V50.75H132.3Z" fill="#01001A"/>
<path d="M153.059 50.75V41.8721H149.8V40.25H158.2V41.8721H154.946V50.75H153.059Z" fill="#01001A"/>
<path d="M176.667 50.75V46.155H171.233V50.75H169.4V40.25H171.233V44.5329H176.667V40.25H178.5V50.75H176.667Z" fill="#01001A"/>
</svg>
