<svg width="1076" height="368" viewBox="0 0 1076 368" fill="none" xmlns="http://www.w3.org/2000/svg">
<g filter="url(#filter0_d_1_12635)">
<path d="M86.9634 360L1020 360C1046.51 360 1068 338.51 1068 312V149.485C1068 124.903 1049.43 104.294 1024.98 101.744L53.3987 0.404175C22.2609 -2.84366 -3.60217 24.1054 0.923096 55.0834L39.4675 318.938C42.912 342.518 63.1338 360 86.9634 360Z" fill="#1DB5FF"/>
<path d="M1020 358.5L86.9634 358.5C63.8785 358.5 44.2886 341.564 40.9518 318.721L2.40735 54.8666C-1.97656 24.8567 23.0782 -1.25024 53.2431 1.89609L1024.82 103.236C1048.51 105.707 1066.5 125.672 1066.5 149.485V312C1066.5 337.681 1045.68 358.5 1020 358.5Z" stroke="#E2E6E9" stroke-width="3"/>
</g>
<defs>
<filter id="filter0_d_1_12635" x="0.407227" y="0.137939" width="1075.59" height="367.862" filterUnits="userSpaceOnUse" color-interpolation-filters="sRGB">
<feFlood flood-opacity="0" result="BackgroundImageFix"/>
<feColorMatrix in="SourceAlpha" type="matrix" values="0 0 0 0 0 0 0 0 0 0 0 0 0 0 0 0 0 0 127 0" result="hardAlpha"/>
<feOffset dx="8" dy="8"/>
<feComposite in2="hardAlpha" operator="out"/>
<feColorMatrix type="matrix" values="0 0 0 0 0.00392157 0 0 0 0 0 0 0 0 0 0.101961 0 0 0 1 0"/>
<feBlend mode="normal" in2="BackgroundImageFix" result="effect1_dropShadow_1_12635"/>
<feBlend mode="normal" in="SourceGraphic" in2="effect1_dropShadow_1_12635" result="shape"/>
</filter>
</defs>
</svg>
