<svg width="49" height="48" viewBox="0 0 49 48" fill="none" xmlns="http://www.w3.org/2000/svg">
<path d="M7.43725 0H40.8762C44.9855 0 48.3179 3.3105 48.3179 7.39271V40.6117C48.3179 44.6895 44.9855 48 40.8762 48H7.43725C3.33242 48 0 44.6895 0 40.6117V7.39271C0 3.30611 3.33242 0 7.43725 0Z" fill="#01001A"/>
<path d="M24.1589 19.2001C16.5522 19.2001 12.0795 24.5617 12.0795 30.6974C12.0795 36.833 16.5309 42.2391 24.1376 42.2391C31.7444 42.2391 36.2384 36.833 36.2384 30.6974C36.2384 24.5617 31.813 19.2001 24.1589 19.2001ZM24.1376 35.0116C21.692 35.0116 20.3106 33.1516 20.3106 30.6974C20.3106 28.2431 21.692 26.4266 24.1376 26.4266C26.5833 26.4266 28.0072 28.2914 28.0072 30.6974C28.0072 33.1033 26.6259 35.0116 24.1376 35.0116Z" fill="#FBFBFB"/>
<path d="M36.317 13.9015C33.1681 17.1132 28.8705 18.3337 24.1589 18.2401C19.4427 18.1514 15.1934 16.7733 12.1581 13.4434L18.0487 7.44363C19.6302 9.17263 21.8368 10.2711 24.2944 10.3204C26.7567 10.3647 29.0012 9.35489 30.6396 7.68008L36.317 13.9064V13.9015Z" fill="#FBFBFB"/>
</svg>
